<mxfile host="Electron" agent="Mozilla/5.0 (Windows NT 10.0; Win64; x64) AppleWebKit/537.36 (KHTML, like Gecko) draw.io/24.7.8 Chrome/128.0.6613.36 Electron/32.0.1 Safari/537.36" version="24.7.8">
  <diagram id="C5RBs43oDa-KdzZeNtuy" name="Page-1">
    <mxGraphModel dx="537" dy="367" grid="1" gridSize="10" guides="1" tooltips="1" connect="1" arrows="1" fold="1" page="1" pageScale="1" pageWidth="827" pageHeight="1169" math="0" shadow="0">
      <root>
        <mxCell id="WIyWlLk6GJQsqaUBKTNV-0" />
        <mxCell id="WIyWlLk6GJQsqaUBKTNV-1" parent="WIyWlLk6GJQsqaUBKTNV-0" />
        <mxCell id="xErzYOFWVF3ollnnwEWR-6" style="edgeStyle=orthogonalEdgeStyle;rounded=0;orthogonalLoop=1;jettySize=auto;html=1;entryX=0.5;entryY=0;entryDx=0;entryDy=0;" edge="1" parent="WIyWlLk6GJQsqaUBKTNV-1" source="WIyWlLk6GJQsqaUBKTNV-3" target="xErzYOFWVF3ollnnwEWR-5">
          <mxGeometry relative="1" as="geometry" />
        </mxCell>
        <mxCell id="WIyWlLk6GJQsqaUBKTNV-3" value="Start ESP" style="rounded=1;whiteSpace=wrap;html=1;fontSize=12;glass=0;strokeWidth=1;shadow=0;arcSize=50;" parent="WIyWlLk6GJQsqaUBKTNV-1" vertex="1">
          <mxGeometry x="20" y="20" width="120" height="40" as="geometry" />
        </mxCell>
        <mxCell id="xErzYOFWVF3ollnnwEWR-3" style="edgeStyle=orthogonalEdgeStyle;rounded=0;orthogonalLoop=1;jettySize=auto;html=1;entryX=0.5;entryY=0;entryDx=0;entryDy=0;" edge="1" parent="WIyWlLk6GJQsqaUBKTNV-1" source="WIyWlLk6GJQsqaUBKTNV-7" target="xErzYOFWVF3ollnnwEWR-1">
          <mxGeometry relative="1" as="geometry" />
        </mxCell>
        <mxCell id="WIyWlLk6GJQsqaUBKTNV-7" value="Initialize WiFi connection" style="rounded=1;whiteSpace=wrap;html=1;fontSize=12;glass=0;strokeWidth=1;shadow=0;" parent="WIyWlLk6GJQsqaUBKTNV-1" vertex="1">
          <mxGeometry x="20" y="160" width="120" height="40" as="geometry" />
        </mxCell>
        <mxCell id="xErzYOFWVF3ollnnwEWR-1" value="Initialize SNTP connection" style="rounded=1;whiteSpace=wrap;html=1;fontSize=12;glass=0;strokeWidth=1;shadow=0;" vertex="1" parent="WIyWlLk6GJQsqaUBKTNV-1">
          <mxGeometry x="20" y="230" width="120" height="40" as="geometry" />
        </mxCell>
        <mxCell id="xErzYOFWVF3ollnnwEWR-9" style="edgeStyle=orthogonalEdgeStyle;rounded=0;orthogonalLoop=1;jettySize=auto;html=1;entryX=0.5;entryY=0;entryDx=0;entryDy=0;" edge="1" parent="WIyWlLk6GJQsqaUBKTNV-1" source="xErzYOFWVF3ollnnwEWR-2" target="xErzYOFWVF3ollnnwEWR-8">
          <mxGeometry relative="1" as="geometry" />
        </mxCell>
        <mxCell id="xErzYOFWVF3ollnnwEWR-2" value="Initialize keyboard" style="rounded=1;whiteSpace=wrap;html=1;fontSize=12;glass=0;strokeWidth=1;shadow=0;" vertex="1" parent="WIyWlLk6GJQsqaUBKTNV-1">
          <mxGeometry x="20" y="300" width="120" height="40" as="geometry" />
        </mxCell>
        <mxCell id="xErzYOFWVF3ollnnwEWR-4" style="edgeStyle=orthogonalEdgeStyle;rounded=0;orthogonalLoop=1;jettySize=auto;html=1;entryX=0.502;entryY=-0.079;entryDx=0;entryDy=0;entryPerimeter=0;" edge="1" parent="WIyWlLk6GJQsqaUBKTNV-1" source="xErzYOFWVF3ollnnwEWR-1" target="xErzYOFWVF3ollnnwEWR-2">
          <mxGeometry relative="1" as="geometry" />
        </mxCell>
        <mxCell id="xErzYOFWVF3ollnnwEWR-7" style="edgeStyle=orthogonalEdgeStyle;rounded=0;orthogonalLoop=1;jettySize=auto;html=1;entryX=0.5;entryY=0;entryDx=0;entryDy=0;" edge="1" parent="WIyWlLk6GJQsqaUBKTNV-1" source="xErzYOFWVF3ollnnwEWR-5" target="WIyWlLk6GJQsqaUBKTNV-7">
          <mxGeometry relative="1" as="geometry" />
        </mxCell>
        <mxCell id="xErzYOFWVF3ollnnwEWR-5" value="Initialize display with welcome message" style="rounded=1;whiteSpace=wrap;html=1;fontSize=12;glass=0;strokeWidth=1;shadow=0;" vertex="1" parent="WIyWlLk6GJQsqaUBKTNV-1">
          <mxGeometry x="20" y="90" width="120" height="40" as="geometry" />
        </mxCell>
        <mxCell id="xErzYOFWVF3ollnnwEWR-11" style="edgeStyle=orthogonalEdgeStyle;rounded=0;orthogonalLoop=1;jettySize=auto;html=1;entryX=0.5;entryY=0;entryDx=0;entryDy=0;" edge="1" parent="WIyWlLk6GJQsqaUBKTNV-1" source="xErzYOFWVF3ollnnwEWR-8" target="xErzYOFWVF3ollnnwEWR-10">
          <mxGeometry relative="1" as="geometry" />
        </mxCell>
        <mxCell id="xErzYOFWVF3ollnnwEWR-8" value="Initialize LED lights" style="rounded=1;whiteSpace=wrap;html=1;fontSize=12;glass=0;strokeWidth=1;shadow=0;" vertex="1" parent="WIyWlLk6GJQsqaUBKTNV-1">
          <mxGeometry x="20" y="370" width="120" height="40" as="geometry" />
        </mxCell>
        <mxCell id="xErzYOFWVF3ollnnwEWR-22" style="edgeStyle=orthogonalEdgeStyle;rounded=0;orthogonalLoop=1;jettySize=auto;html=1;" edge="1" parent="WIyWlLk6GJQsqaUBKTNV-1" source="xErzYOFWVF3ollnnwEWR-10" target="xErzYOFWVF3ollnnwEWR-21">
          <mxGeometry relative="1" as="geometry" />
        </mxCell>
        <mxCell id="xErzYOFWVF3ollnnwEWR-10" value="Remove welcome message" style="rounded=1;whiteSpace=wrap;html=1;fontSize=12;glass=0;strokeWidth=1;shadow=0;" vertex="1" parent="WIyWlLk6GJQsqaUBKTNV-1">
          <mxGeometry x="20" y="440" width="120" height="40" as="geometry" />
        </mxCell>
        <mxCell id="xErzYOFWVF3ollnnwEWR-15" value="WiFi subsystem" style="rounded=0;whiteSpace=wrap;html=1;verticalAlign=top;align=left;spacingLeft=10;" vertex="1" parent="WIyWlLk6GJQsqaUBKTNV-1">
          <mxGeometry x="380" y="20" width="290" height="240" as="geometry" />
        </mxCell>
        <mxCell id="xErzYOFWVF3ollnnwEWR-19" style="edgeStyle=orthogonalEdgeStyle;rounded=0;orthogonalLoop=1;jettySize=auto;html=1;entryX=0;entryY=0.25;entryDx=0;entryDy=0;" edge="1" parent="WIyWlLk6GJQsqaUBKTNV-1" source="xErzYOFWVF3ollnnwEWR-16" target="xErzYOFWVF3ollnnwEWR-48">
          <mxGeometry relative="1" as="geometry">
            <mxPoint x="577" y="70.75" as="targetPoint" />
          </mxGeometry>
        </mxCell>
        <mxCell id="xErzYOFWVF3ollnnwEWR-16" value="init" style="rounded=1;whiteSpace=wrap;html=1;fontSize=12;glass=0;strokeWidth=1;shadow=0;" vertex="1" parent="WIyWlLk6GJQsqaUBKTNV-1">
          <mxGeometry x="393" y="60" width="90" height="30" as="geometry" />
        </mxCell>
        <mxCell id="xErzYOFWVF3ollnnwEWR-34" style="edgeStyle=orthogonalEdgeStyle;rounded=0;orthogonalLoop=1;jettySize=auto;html=1;entryX=1;entryY=0.5;entryDx=0;entryDy=0;exitX=0.5;exitY=1;exitDx=0;exitDy=0;" edge="1" parent="WIyWlLk6GJQsqaUBKTNV-1" source="xErzYOFWVF3ollnnwEWR-48" target="xErzYOFWVF3ollnnwEWR-32">
          <mxGeometry relative="1" as="geometry">
            <mxPoint x="597.75" y="133" as="sourcePoint" />
            <Array as="points">
              <mxPoint x="597" y="130" />
              <mxPoint x="597" y="175" />
            </Array>
          </mxGeometry>
        </mxCell>
        <mxCell id="xErzYOFWVF3ollnnwEWR-35" style="edgeStyle=orthogonalEdgeStyle;rounded=0;orthogonalLoop=1;jettySize=auto;html=1;exitX=0.75;exitY=1;exitDx=0;exitDy=0;entryX=1;entryY=0.5;entryDx=0;entryDy=0;" edge="1" parent="WIyWlLk6GJQsqaUBKTNV-1" source="xErzYOFWVF3ollnnwEWR-48" target="xErzYOFWVF3ollnnwEWR-33">
          <mxGeometry relative="1" as="geometry">
            <mxPoint x="639.25" y="133" as="sourcePoint" />
          </mxGeometry>
        </mxCell>
        <mxCell id="xErzYOFWVF3ollnnwEWR-28" style="edgeStyle=orthogonalEdgeStyle;rounded=0;orthogonalLoop=1;jettySize=auto;html=1;entryX=0;entryY=0.75;entryDx=0;entryDy=0;" edge="1" parent="WIyWlLk6GJQsqaUBKTNV-1" source="xErzYOFWVF3ollnnwEWR-20" target="xErzYOFWVF3ollnnwEWR-48">
          <mxGeometry relative="1" as="geometry">
            <mxPoint x="577" y="91.5" as="targetPoint" />
          </mxGeometry>
        </mxCell>
        <mxCell id="xErzYOFWVF3ollnnwEWR-20" value="update" style="rounded=1;whiteSpace=wrap;html=1;fontSize=12;glass=0;strokeWidth=1;shadow=0;" vertex="1" parent="WIyWlLk6GJQsqaUBKTNV-1">
          <mxGeometry x="393" y="110" width="90" height="30" as="geometry" />
        </mxCell>
        <mxCell id="xErzYOFWVF3ollnnwEWR-21" value="Enter ESP main loop" style="rounded=1;whiteSpace=wrap;html=1;fontSize=12;glass=0;strokeWidth=1;shadow=0;arcSize=50;" vertex="1" parent="WIyWlLk6GJQsqaUBKTNV-1">
          <mxGeometry x="20" y="510" width="120" height="40" as="geometry" />
        </mxCell>
        <mxCell id="xErzYOFWVF3ollnnwEWR-26" style="edgeStyle=orthogonalEdgeStyle;rounded=0;orthogonalLoop=1;jettySize=auto;html=1;entryX=0.5;entryY=0;entryDx=0;entryDy=0;" edge="1" parent="WIyWlLk6GJQsqaUBKTNV-1" source="xErzYOFWVF3ollnnwEWR-23" target="xErzYOFWVF3ollnnwEWR-24">
          <mxGeometry relative="1" as="geometry" />
        </mxCell>
        <mxCell id="xErzYOFWVF3ollnnwEWR-23" value="ESP main loop" style="rounded=1;whiteSpace=wrap;html=1;fontSize=12;glass=0;strokeWidth=1;shadow=0;arcSize=50;" vertex="1" parent="WIyWlLk6GJQsqaUBKTNV-1">
          <mxGeometry x="160" y="20" width="120" height="40" as="geometry" />
        </mxCell>
        <mxCell id="xErzYOFWVF3ollnnwEWR-27" style="edgeStyle=orthogonalEdgeStyle;rounded=0;orthogonalLoop=1;jettySize=auto;html=1;entryX=0.5;entryY=0;entryDx=0;entryDy=0;" edge="1" parent="WIyWlLk6GJQsqaUBKTNV-1" source="xErzYOFWVF3ollnnwEWR-24" target="xErzYOFWVF3ollnnwEWR-25">
          <mxGeometry relative="1" as="geometry" />
        </mxCell>
        <mxCell id="xErzYOFWVF3ollnnwEWR-24" value="Check WiFi connection every 5 minutes" style="rounded=1;whiteSpace=wrap;html=1;fontSize=12;glass=0;strokeWidth=1;shadow=0;" vertex="1" parent="WIyWlLk6GJQsqaUBKTNV-1">
          <mxGeometry x="160" y="90" width="120" height="60" as="geometry" />
        </mxCell>
        <mxCell id="xErzYOFWVF3ollnnwEWR-25" value="Sync time every day" style="rounded=1;whiteSpace=wrap;html=1;fontSize=12;glass=0;strokeWidth=1;shadow=0;" vertex="1" parent="WIyWlLk6GJQsqaUBKTNV-1">
          <mxGeometry x="160" y="180" width="120" height="60" as="geometry" />
        </mxCell>
        <mxCell id="xErzYOFWVF3ollnnwEWR-32" value="reset connected flag" style="rounded=1;whiteSpace=wrap;html=1;fontSize=12;glass=0;strokeWidth=1;shadow=0;spacing=5;" vertex="1" parent="WIyWlLk6GJQsqaUBKTNV-1">
          <mxGeometry x="393" y="160" width="90" height="30" as="geometry" />
        </mxCell>
        <mxCell id="xErzYOFWVF3ollnnwEWR-33" value="set connected flag" style="rounded=1;whiteSpace=wrap;html=1;fontSize=12;glass=0;strokeWidth=1;shadow=0;spacing=5;" vertex="1" parent="WIyWlLk6GJQsqaUBKTNV-1">
          <mxGeometry x="393" y="210" width="90" height="30" as="geometry" />
        </mxCell>
        <mxCell id="xErzYOFWVF3ollnnwEWR-36" value="Time subsystem" style="rounded=0;whiteSpace=wrap;html=1;verticalAlign=top;align=left;spacingLeft=10;" vertex="1" parent="WIyWlLk6GJQsqaUBKTNV-1">
          <mxGeometry x="380" y="280" width="290" height="240" as="geometry" />
        </mxCell>
        <mxCell id="xErzYOFWVF3ollnnwEWR-37" style="edgeStyle=orthogonalEdgeStyle;rounded=0;orthogonalLoop=1;jettySize=auto;html=1;entryX=0;entryY=0.25;entryDx=0;entryDy=0;" edge="1" source="xErzYOFWVF3ollnnwEWR-38" target="xErzYOFWVF3ollnnwEWR-49" parent="WIyWlLk6GJQsqaUBKTNV-1">
          <mxGeometry relative="1" as="geometry">
            <mxPoint x="577" y="335" as="targetPoint" />
          </mxGeometry>
        </mxCell>
        <mxCell id="xErzYOFWVF3ollnnwEWR-38" value="init" style="rounded=1;whiteSpace=wrap;html=1;fontSize=12;glass=0;strokeWidth=1;shadow=0;" vertex="1" parent="WIyWlLk6GJQsqaUBKTNV-1">
          <mxGeometry x="393" y="320" width="90" height="30" as="geometry" />
        </mxCell>
        <mxCell id="xErzYOFWVF3ollnnwEWR-47" style="edgeStyle=orthogonalEdgeStyle;rounded=0;orthogonalLoop=1;jettySize=auto;html=1;entryX=1;entryY=0.5;entryDx=0;entryDy=0;exitX=0.5;exitY=1;exitDx=0;exitDy=0;" edge="1" parent="WIyWlLk6GJQsqaUBKTNV-1" source="xErzYOFWVF3ollnnwEWR-49" target="xErzYOFWVF3ollnnwEWR-46">
          <mxGeometry relative="1" as="geometry">
            <mxPoint x="617" y="410" as="sourcePoint" />
            <Array as="points">
              <mxPoint x="605" y="435" />
            </Array>
          </mxGeometry>
        </mxCell>
        <mxCell id="xErzYOFWVF3ollnnwEWR-42" style="edgeStyle=orthogonalEdgeStyle;rounded=0;orthogonalLoop=1;jettySize=auto;html=1;entryX=0;entryY=0.75;entryDx=0;entryDy=0;" edge="1" source="xErzYOFWVF3ollnnwEWR-43" target="xErzYOFWVF3ollnnwEWR-49" parent="WIyWlLk6GJQsqaUBKTNV-1">
          <mxGeometry relative="1" as="geometry">
            <mxPoint x="577" y="385" as="targetPoint" />
          </mxGeometry>
        </mxCell>
        <mxCell id="xErzYOFWVF3ollnnwEWR-43" value="update" style="rounded=1;whiteSpace=wrap;html=1;fontSize=12;glass=0;strokeWidth=1;shadow=0;spacing=5;" vertex="1" parent="WIyWlLk6GJQsqaUBKTNV-1">
          <mxGeometry x="393" y="370" width="90" height="30" as="geometry" />
        </mxCell>
        <mxCell id="xErzYOFWVF3ollnnwEWR-46" value="set synched flag" style="rounded=1;whiteSpace=wrap;html=1;fontSize=12;glass=0;strokeWidth=1;shadow=0;spacingTop=0;spacingLeft=0;spacingBottom=0;spacingRight=0;spacing=5;" vertex="1" parent="WIyWlLk6GJQsqaUBKTNV-1">
          <mxGeometry x="393" y="420" width="90" height="30" as="geometry" />
        </mxCell>
        <mxCell id="xErzYOFWVF3ollnnwEWR-48" value="WiFi subsystem" style="rounded=0;whiteSpace=wrap;html=1;shadow=0;glass=0;strokeColor=default;strokeWidth=1;align=center;verticalAlign=middle;spacingLeft=0;spacingRight=0;spacingTop=0;spacingBottom=0;spacing=5;fontFamily=Helvetica;fontSize=12;fontColor=default;fillColor=default;" vertex="1" parent="WIyWlLk6GJQsqaUBKTNV-1">
          <mxGeometry x="550" y="50" width="110" height="100" as="geometry" />
        </mxCell>
        <mxCell id="xErzYOFWVF3ollnnwEWR-49" value="SNTP server" style="rounded=0;whiteSpace=wrap;html=1;shadow=0;glass=0;strokeColor=default;strokeWidth=1;align=center;verticalAlign=middle;spacingLeft=0;spacingRight=0;spacingTop=0;spacingBottom=0;spacing=5;fontFamily=Helvetica;fontSize=12;fontColor=default;fillColor=default;" vertex="1" parent="WIyWlLk6GJQsqaUBKTNV-1">
          <mxGeometry x="550" y="310" width="110" height="100" as="geometry" />
        </mxCell>
        <mxCell id="xErzYOFWVF3ollnnwEWR-50" value="Display" style="rounded=0;whiteSpace=wrap;html=1;verticalAlign=top;align=left;spacingLeft=10;" vertex="1" parent="WIyWlLk6GJQsqaUBKTNV-1">
          <mxGeometry x="700" y="20" width="290" height="240" as="geometry" />
        </mxCell>
        <mxCell id="xErzYOFWVF3ollnnwEWR-51" style="edgeStyle=orthogonalEdgeStyle;rounded=0;orthogonalLoop=1;jettySize=auto;html=1;entryX=0;entryY=0.25;entryDx=0;entryDy=0;" edge="1" source="xErzYOFWVF3ollnnwEWR-52" target="xErzYOFWVF3ollnnwEWR-57" parent="WIyWlLk6GJQsqaUBKTNV-1">
          <mxGeometry relative="1" as="geometry">
            <mxPoint x="897" y="75" as="targetPoint" />
          </mxGeometry>
        </mxCell>
        <mxCell id="xErzYOFWVF3ollnnwEWR-52" value="init" style="rounded=1;whiteSpace=wrap;html=1;fontSize=12;glass=0;strokeWidth=1;shadow=0;" vertex="1" parent="WIyWlLk6GJQsqaUBKTNV-1">
          <mxGeometry x="713" y="60" width="90" height="30" as="geometry" />
        </mxCell>
        <mxCell id="xErzYOFWVF3ollnnwEWR-53" style="edgeStyle=orthogonalEdgeStyle;rounded=0;orthogonalLoop=1;jettySize=auto;html=1;entryX=1;entryY=0.5;entryDx=0;entryDy=0;exitX=0.5;exitY=1;exitDx=0;exitDy=0;" edge="1" source="xErzYOFWVF3ollnnwEWR-57" target="xErzYOFWVF3ollnnwEWR-56" parent="WIyWlLk6GJQsqaUBKTNV-1">
          <mxGeometry relative="1" as="geometry">
            <mxPoint x="937" y="150" as="sourcePoint" />
            <Array as="points">
              <mxPoint x="925" y="175" />
            </Array>
          </mxGeometry>
        </mxCell>
        <mxCell id="xErzYOFWVF3ollnnwEWR-54" style="edgeStyle=orthogonalEdgeStyle;rounded=0;orthogonalLoop=1;jettySize=auto;html=1;entryX=0;entryY=0.75;entryDx=0;entryDy=0;" edge="1" source="xErzYOFWVF3ollnnwEWR-55" target="xErzYOFWVF3ollnnwEWR-57" parent="WIyWlLk6GJQsqaUBKTNV-1">
          <mxGeometry relative="1" as="geometry">
            <mxPoint x="897" y="125" as="targetPoint" />
          </mxGeometry>
        </mxCell>
        <mxCell id="xErzYOFWVF3ollnnwEWR-55" value="update" style="rounded=1;whiteSpace=wrap;html=1;fontSize=12;glass=0;strokeWidth=1;shadow=0;spacing=5;" vertex="1" parent="WIyWlLk6GJQsqaUBKTNV-1">
          <mxGeometry x="713" y="110" width="90" height="30" as="geometry" />
        </mxCell>
        <mxCell id="xErzYOFWVF3ollnnwEWR-56" value="set synched flag" style="rounded=1;whiteSpace=wrap;html=1;fontSize=12;glass=0;strokeWidth=1;shadow=0;spacingTop=0;spacingLeft=0;spacingBottom=0;spacingRight=0;spacing=5;" vertex="1" parent="WIyWlLk6GJQsqaUBKTNV-1">
          <mxGeometry x="713" y="160" width="90" height="30" as="geometry" />
        </mxCell>
        <mxCell id="xErzYOFWVF3ollnnwEWR-57" value="SSD1306 driver" style="rounded=0;whiteSpace=wrap;html=1;shadow=0;glass=0;strokeColor=default;strokeWidth=1;align=center;verticalAlign=middle;spacingLeft=0;spacingRight=0;spacingTop=0;spacingBottom=0;spacing=5;fontFamily=Helvetica;fontSize=12;fontColor=default;fillColor=default;" vertex="1" parent="WIyWlLk6GJQsqaUBKTNV-1">
          <mxGeometry x="870" y="50" width="110" height="100" as="geometry" />
        </mxCell>
      </root>
    </mxGraphModel>
  </diagram>
</mxfile>
